inDegrees=no
num_controls=7
num_derivatives=13
num_iterations=110
num_multipliers=7
num_parameters=0
num_slacks=7
num_states=26
objective=0.469792
objective_accelerations=0.062836
objective_balance=0.002037
objective_effort=0.020131
objective_height=0.375273
objective_ligament=0.009515
solver_duration=1501.947066
status=Solve_Succeeded
success=true
DataType=double
version=3
OpenSimVersion=4.5
endheader
time	/jointset/ground_pelvis/pelvis_tilt/value	/jointset/ground_pelvis/pelvis_tx/value	/jointset/ground_pelvis/pelvis_ty/value	/jointset/hip_l/hip_flexion_l/value	/jointset/hip_l/hip_adduction_l/value	/jointset/hip_l/hip_rotation_l/value	/jointset/back/lumbar_extension/value	/jointset/patellofemoral_l/patellar_flexion_l/value	/jointset/knee_l/knee_flexion_l/value	/jointset/knee_l/knee_adduction_l/value	/jointset/knee_l/knee_rotation_l/value	/jointset/ankle_l/ankle_angle_l/value	/jointset/subtalar_l/subtalar_angle_l/value	/jointset/ground_pelvis/pelvis_tilt/speed	/jointset/ground_pelvis/pelvis_tx/speed	/jointset/ground_pelvis/pelvis_ty/speed	/jointset/hip_l/hip_flexion_l/speed	/jointset/hip_l/hip_adduction_l/speed	/jointset/hip_l/hip_rotation_l/speed	/jointset/back/lumbar_extension/speed	/jointset/patellofemoral_l/patellar_flexion_l/speed	/jointset/knee_l/knee_flexion_l/speed	/jointset/knee_l/knee_adduction_l/speed	/jointset/knee_l/knee_rotation_l/speed	/jointset/ankle_l/ankle_angle_l/speed	/jointset/subtalar_l/subtalar_angle_l/speed	/forceset/tau_hip_flexion_l	/forceset/tau_hip_adduction_l	/forceset/tau_hip_rotation_l	/forceset/tau_knee_flexion_l	/forceset/tau_ankle_angle_l	/forceset/tau_subtalar_angle_l	/forceset/tau_lumbar_extension	lambda_cid13_p0	lambda_cid13_p1	lambda_cid13_p2	lambda_cid13_p3	lambda_cid13_p4	lambda_cid13_p5	lambda_cid14_p0	/jointset/ground_pelvis/pelvis_tilt/accel	/jointset/ground_pelvis/pelvis_tx/accel	/jointset/ground_pelvis/pelvis_ty/accel	/jointset/hip_l/hip_flexion_l/accel	/jointset/hip_l/hip_adduction_l/accel	/jointset/hip_l/hip_rotation_l/accel	/jointset/back/lumbar_extension/accel	/jointset/patellofemoral_l/patellar_flexion_l/accel	/jointset/knee_l/knee_flexion_l/accel	/jointset/knee_l/knee_adduction_l/accel	/jointset/knee_l/knee_rotation_l/accel	/jointset/ankle_l/ankle_angle_l/accel	/jointset/subtalar_l/subtalar_angle_l/accel	gamma_cid13_p0	gamma_cid13_p1	gamma_cid13_p2	gamma_cid13_p3	gamma_cid13_p4	gamma_cid13_p5	gamma_cid14_p0
1	-0.8391946760253918	-0.1595387990451802	0.6143827245340457	2.024112185214601	-0.3360890251484491	0.04375243721021112	-0.4362924784648834	1.05633969171273	1.056339691714287	-0.004877088707781203	-0.174444743184365	0.0006850366389437841	0.08455184923630478	-0.1712060245254584	0.01476689510016241	0.03346079009177869	0.01329073957738857	-0.0057130790802824	-0.05626526839649636	-2.660805848571509e-05	-0.1649563435167729	-0.164956343516775	-0.009935393962120407	0.0005592252327146455	-0.01864930762274504	-0.01067078901270361	-0.382632055696864	-0.005970613853455524	-0.005714541751530408	-0.1283030174623603	0.1115255733905517	0.02331084630009591	0.2822976366702042	5.90285139661671	-7.984137341487822	-2.632803251427602	-7.654538462352808	-545.5908137759862	-70.92622871648072	-2.199944283998239	3.220551254477827	0.7613384157161714	1.776876573940654	-7.649604247615056	-0.220193020943218	-1.272873215238448	-0.01914055459342413	-3.865043859287273	-3.865043859287281	-0.4001166442617002	-0.01627912753122219	0.3018946001787992	-0.1189734061072583	-1.009914652137923e-08	-5.074087397739812e-08	5.08156280654211e-09	1.278711522325032e-10	-9.277425575902653e-09	3.355911515415965e-08	-1.368820674848173e-08
1.01	-0.8407466672322329	-0.1593532112518193	0.6148058862554044	2.023864055994749	-0.3361563610337131	0.04312655015175079	-0.4362924946171879	1.05449692102135	1.054496921022849	-0.004995593407604911	-0.174438872539222	0.000513325268834744	0.0844399166810525	-0.1391727520456967	0.02234855951022237	0.05115432102427858	-0.06289563038722888	-0.007744537178275578	-0.06892662687614069	1.463353986472135e-05	-0.2035877244172497	-0.2035877244172707	-0.01374492490445989	0.0006051954860218892	-0.01572223530338794	-0.01171448948711259	-0.3829091342887525	-0.005675319381792627	-0.005727366630792619	-0.1272103699274562	0.1104748719733698	0.02347796742891352	0.2823730702535819	5.598156848634367	-8.043793298641528	-2.577117453094163	-7.554763141869375	-545.2611934567955	-70.85917298067825	-2.239428909440165	3.197632989034107	0.7562633982871533	1.763003953116118	-7.6000126279468	-0.1931795183849161	-1.264953830766103	0.01444490858976459	-3.860671435007167	-3.860671435009939	-0.368292816423183	0.01358250812088201	0.2837196045257213	-0.09687355649185141	-8.855837861395815e-09	-6.084330441295432e-08	-9.326482998312828e-10	-7.157124007544952e-09	-1.210372136819831e-08	4.174324327245749e-08	-1.6071265059089e-08
1.02	-0.8419777421654129	-0.1590918702254304	0.6154054658061303	2.022854691223829	-0.3362437229627876	0.04237361217520714	-0.4362923606752084	1.052268139275047	1.052268139276503	-0.00515157771629102	-0.1744328327102757	0.0003700058332694887	0.08431758608337921	-0.1070227697935886	0.02991754170574762	0.06874435596524656	-0.138956370634318	-0.009718287842574055	-0.0816754520133323	3.410799834485125e-06	-0.2421585545008966	-0.2421585545009339	-0.0174313157349231	0.0005930619936951161	-0.01297092071556724	-0.01275039749688712	-0.3831862128806993	-0.005380024910127118	-0.005740191510035549	-0.1261177223925319	0.1094241705562037	0.02364508855773825	0.2824485038368834	5.289530881217948	-8.104408576327675	-2.519396396960298	-7.473430130393984	-545.0197882175177	-70.79111115957276	-2.287703217733505	3.243893208947078	0.7588019728092479	1.756177375634273	-7.624478304109408	-0.2086515342043001	-1.290366546747933	-0.02963342226953387	-3.852933695921286	-3.852933695920767	-0.3754886218864558	-0.02789987665806984	0.2667430538715478	-0.11741491318038	-8.79618564958194e-09	-6.856790004018923e-08	2.882995778843314e-09	-1.206109346497441e-08	-1.594146444275307e-08	5.366497863656011e-08	-1.926020434634306e-08
1.03	-0.842886621791978	-0.1587548574716959	0.6161803925718524	2.02108529042784	-0.3363505526278122	0.04149305267177469	-0.4362926243120929	1.049654020618406	1.049654020619327	-0.005344101344183172	-0.1744270905825169	0.0002533238907858513	0.08418491278442185	-0.07472404772198234	0.03748724518946253	0.08622023018038143	-0.2149075409936284	-0.01163887871689162	-0.09441944353561753	-6.583432343501691e-05	-0.2806488822535881	-0.2806488822535469	-0.02108145745589222	0.000559447688256834	-0.01039444996708271	-0.01378417664319024	-0.3832296885510815	-0.005007660041128825	-0.005741358291020998	-0.1249758162446543	0.108324407497248	0.02384010924832762	0.2824224025853336	4.978138780998185	-8.17907061863583	-2.456678433723232	-7.407405434088552	-544.5876994345093	-70.73341234266542	-2.345045936585787	3.227224726260777	0.7563865407482632	1.740173413433479	-7.578002836262288	-0.1824374619156342	-1.263884069179088	0.002975520698899933	-3.844633617910956	-3.844633617899521	-0.3610030862094064	0.009526961811711369	0.248747840734362	-0.0963351486599595	-8.74861156479021e-09	-7.626823204693105e-08	6.798944502263354e-09	-1.694076674176764e-08	-1.978952840794314e-08	6.562485285010973e-08	-2.245736690886904e-08
